Coordinates
version=1
nRows=7
nColumns=32
inDegrees=yes

Units are S.I. units (second, meters, Newtons, ...)
Angles are in degrees.
endheader
time	lower_torso_RX	lower_torso_RY	lower_torso_RZ	lower_torso_TX	lower_torso_TY	lower_torso_TZ	lumbar_pitch	lumbar_roll	lumbar_yaw	hip_flex_r	hip_add_r	hip_rot_r	knee_flex_r	tib_pat_r_r3	tib_pat_r_tx	tib_pat_r_ty	tib_pat_r_tz	ankle_flex_r	subt_angle_r	toe_angle_r	hip_flex_l	hip_add_l	hip_rot_l	knee_flex_l	tib_pat_l_r3	tib_pat_l_tx	tib_pat_l_ty	tib_pat_l_tz	ankle_flex_l	subt_angle_l	toe_angle_l
3.18000000000000020000	4.41087214000000040000	17.85749835000000000000	-10.97555142999999900000	-0.54306905999999999000	0.67133617000000001000	-0.26647684999999999000	8.09923144999999960000	-3.41667925000000010000	-0.97421933999999999000	42.77897316000000000000	-6.83301771000000000000	15.99309132000000000000	36.24758710999999800000	10.25234639719685800000	0.04010889826132720000	-0.01944725057172854900	0.00219691669626343640	-6.79862138000000020000	-2.68038104999999980000	0.00000000000000000000	-1.21913849999999990000	2.56066174000000000000	27.63943675999999900000	23.75133125000000000000	7.09827691901576420000	0.04143052027851820700	-0.01947880963286795200	-0.00214957326773124700	13.37166802000000000000	10.40633119000000000000	0.00000000000000000000
3.18999999999999990000	4.51610820999999960000	18.85092051000000200000	-12.08430431999999900000	-0.53399154000000004000	0.66846987000000002000	-0.26663072999999998000	8.71166288999999950000	-3.39209867000000020000	-1.25783609000000010000	43.42458333999999800000	-7.00958993999999970000	15.04679228000000000000	37.76081019000000100000	10.58147083281453300000	0.03981150390913140000	-0.01939324100802813900	0.00219691669626343640	-3.31114884999999990000	-3.75909122000000020000	0.00000000000000000000	-0.39877810000000002000	1.96117787999999990000	27.90147116000000000000	24.26464040999999800000	7.24421746701471390000	0.04134873076139165100	-0.01946011963168342900	-0.00214957326773124700	13.44497681000000000000	10.94239776000000000000	0.00000000000000000000
3.20000000000000020000	4.63801533999999990000	19.75282087000000100000	-12.68663956000000000000	-0.52455457999999999000	0.66599523000000005000	-0.26676585000000003000	9.27370344999999930000	-3.38848891000000000000	-1.53228488999999990000	43.44043995999999900000	-6.96896141000000040000	14.58972002000000000000	39.23780676999999900000	10.89258358836180600000	0.03951595326235148700	-0.01934116259509112400	0.00219691669626343640	-0.58993885000000001000	-5.17325610999999960000	0.00000000000000000000	-0.03227986000000000000	1.61955659000000000000	28.63007425000000000000	25.22845017999999900000	7.51425020443817890000	0.04119323542173031900	-0.01942500712923738200	-0.00214957326773124700	13.33394547000000000000	11.24664218999999900000	0.00000000000000000000
3.21000000000000000000	4.72632486000000010000	20.58728546000000000000	-12.93065427000000000000	-0.51488794999999998000	0.66376111000000004000	-0.26688476999999999000	9.78971214000000070000	-3.35009169000000020000	-1.79883232000000000000	43.03352314000000000000	-6.71222851000000010000	14.47001078000000100000	40.61554861999999800000	11.17398480643965000000	0.03923564596484448900	-0.01929321889464030400	0.00219691669626343640	1.51358257000000010000	-6.81262588999999960000	0.00000000000000000000	0.03140798000000000200	1.43607703000000010000	29.68632176999999900000	26.51135276999999800000	7.86570493850983250000	0.04098240042681074200	-0.01937826130395657300	-0.00214957326773124700	13.04104811000000000000	11.30184938999999900000	0.00000000000000000000
3.22000000000000020000	4.71048315999999990000	21.35067624999999900000	-12.97573811000000000000	-0.50519917000000003000	0.66172217000000000000	-0.26698287999999998000	10.26846961999999900000	-3.20794919999999980000	-2.05644635999999980000	42.42164693000000100000	-6.24217711000000010000	14.50890451000000100000	41.84308253999999700000	11.41771330796087200000	0.03898221586060736400	-0.01925103830988446300	0.00219691669626343640	3.14819886999999990000	-8.51926998000000070000	0.00000000000000000000	-0.04062671000000000300	1.29115753999999990000	30.88902931999999900000	27.95801045000000000000	8.25127539139161570000	0.04073943321280368300	-0.01932559355802534000	-0.00214957326773124700	12.55080728000000100000	11.11275077000000000000	0.00000000000000000000
3.23000000000000000000	4.51879270999999960000	22.00390692999999900000	-12.94228227000000000000	-0.49566388000000000000	0.66000707000000003000	-0.26702663999999998000	10.72236595999999900000	-2.89592448000000010000	-2.30126987000000010000	41.77387459999999900000	-5.56524984999999980000	14.54199614000000000000	42.89221374000000300000	11.62090797385527600000	0.03876292360161199400	-0.01921537502969635600	0.00219691669626343640	4.42849498999999990000	-10.11558350000000000000	0.00000000000000000000	-0.11420723000000001000	1.07309618000000010000	32.04371314000000100000	29.42508861000000000000	8.63088435819110700000	0.04048746702911103900	-0.01927230051240106500	-0.00214957326773124700	11.82501733000000000000	10.72389727999999900000	0.00000000000000000000
3.24000000000000020000	4.10161117000000000000	22.49075519000000200000	-12.88865858000000000000	-0.48629078999999997000	0.65880707999999999000	-0.26695864000000002000	11.16453342000000000000	-2.36395583000000010000	-2.52745319000000010000	41.18764261999999800000	-4.69158512000000010000	14.44430262000000000000	43.74032367000000200000	11.78178943214531700000	0.03858386729188511400	-0.01918679716694665600	0.00219691669626343640	5.43609072000000020000	-11.43711918000000000000	0.00000000000000000000	-0.11356332000000000000	0.69722123999999996000	32.96635819000000100000	30.80363004999999900000	8.97733330178999720000	0.04024567275359911000	-0.01922239731275410300	-0.00214957326773124700	10.81049941999999900000	10.22378177999999900000	0.00000000000000000000
